<svg width="32" height="32" viewBox="148 77 309 309" fill="none" xmlns="http://www.w3.org/2000/svg">
<path d="M304.519 386.151C217.379 386.291 148.109 323.011 147.579 233.201C147.019 137.531 222.869 78.6906 301.489 77.0306C383.479 75.2906 456.009 148.071 456.339 229.121C456.669 309.201 393.459 386.391 304.519 386.151ZM304.039 382.031C392.489 382.281 452.799 305.681 452.269 228.961C451.729 149.721 380.999 79.6506 302.129 81.0906C222.459 82.5406 150.849 142.491 151.559 234.511C152.199 318.341 218.839 382.761 304.039 382.031Z" fill="#A855F7"/>
<path d="M392.12 287.827C395.14 285.971 397.701 284.459 400.518 283.466C405.386 281.76 410.35 280.74 415.544 281.408C417.955 281.725 419.39 283.131 419.337 285.136C419.293 287.071 417.859 288.214 415.385 288.46C399.999 289.972 389.172 297.675 383.468 312.165C381.936 316.051 381.285 320.149 381.179 324.325C381.118 326.682 379.938 328.027 377.817 328.15C375.59 328.273 374.032 326.849 373.759 324.519C373.451 321.854 373.16 319.181 373.653 316.517C373.97 314.803 373.363 313.835 371.708 313.15C364.296 310.063 356.656 308.78 348.672 310.028C347.246 310.248 346.63 309.791 346.058 308.551C339.905 295.125 325.786 286.561 311.095 287.668C298.833 288.6 289.379 294.492 282.654 304.788C281.703 306.239 281.545 307.232 282.936 308.718C289.828 316.06 293.305 324.8 293.147 334.947C293.12 336.802 292.645 337.549 290.664 337.541C285.233 337.514 285.233 337.593 284.494 332.195C282.381 316.834 269.697 304.049 254.372 302.247C243.677 300.989 234.153 304.067 225.993 311.154C225.113 311.919 224.259 312.64 223.009 312.692C221.389 312.763 220.113 312.182 219.312 310.776C218.502 309.351 218.678 307.98 219.717 306.696C223.59 301.895 228.414 298.501 234.329 296.655C236.987 295.828 236.996 295.784 235.394 293.428C229.391 284.644 221.442 278.691 210.668 277.346C203.978 276.511 197.289 277.047 190.704 278.674C188.178 279.298 186.066 278.137 185.493 275.816C185.08 274.119 185.449 272.668 187.183 271.798C190.643 270.066 194.243 268.852 198.142 268.632C200.871 268.474 200.924 268.386 200.088 265.863C196.179 254.001 194.146 241.832 194.692 229.347C195.713 205.967 203.829 185.19 218.3 166.857C233.141 148.058 251.907 135.177 275.33 129.462C291.483 125.523 307.706 125.664 323.911 129.304C327.485 130.104 329.465 132.759 328.999 136.048C328.576 139.081 325.469 141.244 322.106 141.13C302.521 140.462 284.705 145.412 269.301 157.897C259.46 165.872 251.08 175.14 245.605 186.614C233.396 212.227 235.412 237.225 249.962 261.29C257.479 273.723 267.963 283.193 280.603 290.359C282.513 291.441 283.596 291.08 285.039 289.77C291.087 284.275 298.155 280.749 306.236 279.368C318.621 277.267 329.624 280.476 339.403 288.196C341.26 289.664 343.074 291.203 344.544 293.05C345.45 294.184 346.304 294.193 347.528 293.691C361.955 287.739 373.732 278.48 382.702 265.713C389.101 256.604 393.362 246.572 395.509 235.651C396.011 233.084 397.516 231.378 400.025 230.727C402.534 230.085 404.673 230.868 406.38 232.837C407.181 233.761 407.437 234.816 407.454 236.012C407.63 248.761 405.139 260.974 400.227 272.721C398.106 277.847 395.395 282.665 392.12 287.827Z" fill="#A855F7"/>
<path d="M304.54 256.079C302.077 248.021 296.931 242.999 288.715 240.967C298.084 240.078 303.37 235.135 304.496 225.714C306.581 233.947 311.639 238.926 320.119 240.456C311.146 241.969 306.106 247.23 304.54 256.079Z" fill="#A855F7"/>
<path d="M274.597 229.778C272.372 230.613 271.096 232.021 270.445 234.58C269.354 232.249 267.929 230.833 265.616 229.839C268.316 229.267 269.803 227.895 270.41 225.432C271.175 227.596 272.732 228.801 274.597 229.778Z" fill="#A855F7"/>
<path d="M287.924 225.467C288.918 227.42 290.281 228.766 292.709 229.602C290.044 230.42 288.663 231.88 287.977 234.537C286.974 232.047 285.461 230.763 283.244 229.698C285.804 229.083 287.414 227.895 287.924 225.467Z" fill="#A855F7"/>
<path d="M280.728 212.018C279.602 210.214 278.432 208.745 276.356 207.839C278.591 207.171 280.051 205.843 280.614 203.098C281.652 205.464 282.91 206.872 285.566 207.496C283.042 208.446 281.344 209.66 280.728 212.018Z" fill="#A855F7"/>
<path d="M282.69 182.673C285.434 181.846 287.053 180.65 287.677 178.169C288.539 180.175 289.841 181.617 292.058 182.365C289.753 183.121 288.355 184.546 287.704 187.414C286.71 184.925 285.443 183.359 282.69 182.673Z" fill="#A855F7"/>
<path d="M313.627 214.393C311.252 215.167 310.029 216.777 309.299 219.248C308.384 216.926 307.047 215.492 304.487 214.621C307.1 213.9 308.692 212.686 309.308 210.232C310.24 212.158 311.454 213.689 313.627 214.393Z" fill="#A855F7"/>
<path d="M332.328 251.786C331.396 249.842 330.032 248.505 327.464 247.476C330.305 246.904 331.668 245.488 332.363 243.139C333.199 245.224 334.598 246.632 336.762 247.326C334.483 248.101 333.085 249.534 332.328 251.786Z" fill="#A855F7"/>
<path d="M305.262 270.558C308.393 269.054 308.437 269.01 309.721 265.896C310.575 268.086 311.789 269.617 314.049 270.285C311.762 271.112 310.258 272.519 309.809 275.009C307.769 271.983 307.769 271.983 305.262 270.558Z" fill="#A855F7"/>
<path d="M283.095 252.763C283.904 254.891 285.434 256.07 287.633 256.915C285.329 257.812 283.763 259.096 283.226 261.533C282.408 260.416 281.828 259.598 281.203 258.806C280.596 258.032 279.594 257.812 278.556 257.091C280.913 256.404 282.576 255.208 283.095 252.763Z" fill="#A855F7"/>
</svg>