<svg width="606" height="586" viewBox="0 0 606 586" fill="none" xmlns="http://www.w3.org/2000/svg">
<path d="M134.489 400.071C147.239 399.861 157.989 402.221 167.599 408.141C180.129 415.841 188.399 426.911 191.199 441.551C193.329 452.711 192.979 463.811 188.929 474.571C185.699 483.141 179.809 489.661 172.789 495.381C163.649 502.831 153.139 506.621 141.549 507.721C130.049 508.811 118.879 507.581 108.119 503.101C100.169 499.781 93.9389 494.371 88.6189 487.771C81.2289 478.601 77.5889 468.101 77.0589 456.341C76.3089 439.451 82.7489 425.631 94.6389 414.091C99.2689 409.601 105.089 406.951 110.999 404.521C119.009 401.211 127.359 400.051 134.489 400.071ZM177.219 453.741C177.219 446.471 176.109 439.361 174.069 432.401C171.599 423.981 166.969 416.951 159.909 411.711C149.559 404.021 137.919 401.831 125.399 404.461C114.839 406.681 106.179 411.801 100.809 421.571C93.6089 434.661 90.4589 448.511 93.0889 463.411C94.8989 473.681 98.2489 483.281 105.269 491.291C111.059 497.891 118.069 502.401 126.799 504.021C134.599 505.471 142.249 504.561 149.709 502.251C160.569 498.881 168.329 491.951 172.469 481.261C175.899 472.421 177.139 463.171 177.219 453.741Z" fill="white"/>
<path d="M272.879 473.221C272.909 478.521 273.039 483.821 272.739 489.131C272.589 491.711 272.849 494.291 273.059 496.861C273.229 499.031 274.249 500.151 276.379 500.541C278.639 500.951 280.919 501.241 283.079 502.061C283.919 502.381 284.639 502.771 284.579 503.881C284.519 505.061 284.149 505.761 282.789 505.711C279.349 505.601 275.909 505.651 272.479 505.551C268.959 505.451 265.419 505.721 261.889 505.931C258.549 506.131 255.209 506.101 251.859 506.051C250.629 506.031 249.699 505.671 249.639 504.221C249.579 502.901 250.419 502.381 251.509 502.061C253.219 501.561 254.959 501.331 256.719 501.151C257.379 501.081 258.049 501.021 258.699 500.891C261.499 500.321 262.699 498.871 262.649 495.981C262.609 493.831 262.369 491.691 262.349 489.541C262.259 481.271 262.209 473.011 262.179 464.741C262.169 461.771 262.029 458.821 261.269 455.931C259.749 450.141 255.529 446.601 249.569 445.941C241.459 445.041 234.779 448.101 228.579 452.991C226.399 454.711 225.739 456.711 225.789 459.261C225.979 470.061 226.119 480.851 226.309 491.651C226.339 493.461 226.489 495.271 226.619 497.081C226.779 499.311 227.249 499.851 229.449 500.411C232.039 501.071 234.639 501.711 237.229 502.391C237.829 502.551 238.419 502.751 238.959 503.041C239.789 503.481 240.249 504.201 240.029 505.171C239.799 506.191 238.919 505.921 238.259 505.921C227.269 505.911 216.279 505.881 205.289 505.851C204.529 505.851 203.689 505.971 203.599 504.821C203.509 503.741 203.759 502.941 204.989 502.711C207.199 502.301 209.399 501.881 211.599 501.431C214.969 500.731 215.459 499.991 215.629 496.601C216.049 488.331 215.709 480.071 215.689 471.811C215.679 468.421 215.519 465.031 215.399 461.641C215.269 458.021 214.229 456.601 210.789 455.411C209.709 455.041 208.589 454.761 207.459 454.561C206.569 454.401 205.879 454.201 205.919 453.111C205.959 452.011 205.599 450.831 207.239 450.381C209.969 449.631 212.549 448.491 214.819 446.751C217.979 444.321 220.349 441.231 222.269 437.771C222.919 436.601 224.009 436.201 225.249 436.581C225.929 436.781 225.889 437.311 225.959 437.831C226.349 440.641 226.189 443.461 226.269 446.271C226.289 447.011 225.909 448.081 226.529 448.421C227.199 448.781 227.809 447.821 228.389 447.381C234.409 442.841 240.979 439.411 248.359 437.691C256.939 435.681 265.209 438.801 269.649 445.621C271.319 448.181 271.879 451.081 272.199 454.041C272.539 457.221 272.799 460.411 272.829 463.611C272.849 466.821 272.859 470.021 272.879 473.221Z" fill="white"/>
<path d="M493.039 436.581C509.689 435.931 522.479 446.601 527.189 459.361C532.029 472.471 529.909 484.421 520.089 494.731C512.059 503.161 502.099 506.651 490.659 506.391C481.079 506.171 472.679 502.881 465.979 495.961C459.859 489.641 456.469 482.071 455.969 473.131C455.059 456.691 467.059 438.501 487.319 436.861C489.229 436.711 491.129 436.621 493.039 436.581ZM516.589 471.971C516.799 465.671 514.639 458.121 512.819 453.731C510.799 448.891 507.839 444.791 503.019 442.371C495.039 438.371 487.209 439.291 479.819 443.751C475.279 446.491 472.729 451.011 470.989 455.941C469.549 460.031 469.059 464.301 468.849 468.601C468.519 475.421 468.779 482.211 471.479 488.601C475.209 497.421 481.779 502.761 491.529 503.001C500.529 503.221 507.579 499.271 512.069 491.281C515.399 485.361 516.689 478.911 516.589 471.971Z" fill="white"/>
<path d="M339.949 462.241C333.309 462.281 326.669 462.371 320.029 462.351C315.259 462.331 310.489 462.141 305.709 462.471C304.449 462.561 303.829 462.971 303.739 464.171C303.349 469.331 303.229 474.471 305.019 479.461C306.699 484.131 308.749 488.541 312.429 492.061C316.649 496.091 321.769 497.851 327.429 498.441C335.249 499.261 341.849 496.521 347.749 491.621C348.669 490.861 349.619 490.131 350.549 489.381C351.099 488.941 351.429 488.941 351.639 489.721C352.159 491.671 352.109 493.361 350.519 494.971C345.159 500.411 338.879 504.551 331.509 506.221C320.249 508.781 309.669 507.171 301.169 498.491C296.099 493.321 293.579 486.871 292.679 479.761C291.309 468.981 293.989 459.061 299.999 450.231C304.659 443.371 311.429 439.171 319.779 437.981C325.069 437.231 330.419 437.111 335.449 439.281C344.049 443.001 349.029 449.671 350.759 458.831C350.809 459.111 350.809 459.401 350.829 459.691C350.929 461.931 350.889 461.961 348.719 461.981C345.799 462.001 342.889 462.021 339.969 462.031C339.949 462.101 339.949 462.171 339.949 462.241ZM308.959 459.231C313.889 458.931 319.609 458.611 325.319 458.231C328.889 457.991 332.449 457.671 336.009 457.341C337.849 457.171 339.299 455.601 339.079 453.861C338.479 449.161 336.589 445.181 332.029 443.131C322.319 438.781 309.939 443.091 305.719 456.031C304.689 459.211 304.839 459.261 308.959 459.231Z" fill="white"/>
<path d="M421.049 454.081C423.949 449.551 427.299 445.501 431.139 441.901C434.149 439.081 437.659 436.961 441.949 436.941C447.459 436.911 451.399 443.301 449.109 448.331C447.899 450.991 444.419 452.551 441.329 451.711C439.209 451.131 437.149 450.351 435.049 449.711C431.439 448.591 429.719 449.111 427.489 452.171C425.099 455.451 422.659 458.741 421.869 462.861C421.389 465.411 421.739 468.011 421.789 470.581C421.809 471.681 421.959 472.771 421.979 473.871C422.129 480.751 422.269 487.621 422.409 494.501C422.509 499.111 423.269 499.811 427.819 500.121C431.719 500.381 435.609 500.831 439.509 501.221C440.269 501.301 441.009 501.531 441.659 501.961C442.259 502.361 442.639 502.881 442.429 503.651C442.219 504.401 441.709 504.721 440.939 504.711C438.979 504.681 437.019 504.781 435.059 504.661C428.799 504.271 422.539 504.451 416.289 504.661C410.609 504.861 404.939 505.221 399.259 505.251C398.409 505.261 397.389 505.421 397.359 504.141C397.339 503.031 397.819 502.241 399.039 502.001C402.139 501.411 405.219 500.781 408.309 500.171C410.279 499.781 410.669 499.371 410.949 497.371C411.059 496.571 411.149 495.751 411.139 494.951C411.099 486.301 411.149 477.651 410.919 469.011C410.819 465.301 410.929 461.561 410.369 457.861C409.899 454.771 409.179 453.911 406.159 453.281C404.239 452.881 402.309 452.571 400.389 452.171C399.719 452.031 398.859 451.961 398.889 450.961C398.909 449.991 398.999 449.051 400.139 448.621C401.029 448.291 401.869 447.811 402.759 447.471C409.229 445.011 413.959 440.651 416.979 434.441C417.329 433.731 417.759 433.331 418.609 433.321C420.369 433.301 420.479 433.401 420.649 435.221C421.169 440.991 420.909 446.771 421.039 452.551C421.049 453.051 421.049 453.561 421.049 454.081Z" fill="white"/>
<path d="M388.549 504.771C384.639 504.611 380.729 504.301 376.819 504.311C371.569 504.331 366.319 504.601 361.069 504.771C359.879 504.811 358.689 504.891 357.489 504.911C356.779 504.921 356.149 504.701 355.939 503.911C355.739 503.121 356.039 502.511 356.689 502.051C357.199 501.681 357.789 501.481 358.399 501.341C360.589 500.851 362.779 500.331 364.969 499.851C369.199 498.921 370.409 497.491 370.419 493.151C370.439 488.181 370.379 483.211 370.399 478.241C370.429 471.981 370.179 465.731 370.439 459.471C370.529 457.191 370.269 454.891 370.139 452.601C370.029 450.631 368.689 449.561 367.159 448.681C365.479 447.721 363.619 447.271 361.749 446.831C360.879 446.631 360.099 446.461 360.109 445.251C360.119 444.121 360.629 443.601 361.649 443.371C367.139 442.151 371.479 439.071 375.169 434.961C375.839 434.221 376.439 433.411 377.039 432.601C377.699 431.701 378.609 431.551 379.589 431.771C380.639 432.011 380.429 432.941 380.429 433.661C380.549 449.951 380.659 466.231 380.729 482.521C380.749 486.391 380.869 490.261 380.629 494.131C380.439 497.211 381.349 498.531 384.239 499.521C386.319 500.241 388.439 500.811 390.539 501.461C391.129 501.641 391.729 501.821 392.299 502.071C393.009 502.391 393.199 503.001 393.069 503.741C392.929 504.501 392.419 504.721 391.709 504.711C390.659 504.701 389.609 504.721 388.559 504.721C388.549 504.751 388.549 504.761 388.549 504.771Z" fill="white"/>
<path d="M373.939 411.061C369.889 411.071 366.799 407.981 366.759 403.891C366.729 400.191 369.989 397.181 374.039 397.171C378.089 397.161 381.759 400.501 381.729 404.151C381.689 407.761 377.969 411.051 373.939 411.061Z" fill="white"/>
<path d="M304.519 386.151C217.379 386.291 148.109 323.011 147.579 233.201C147.019 137.531 222.869 78.6906 301.489 77.0306C383.479 75.2906 456.009 148.071 456.339 229.121C456.669 309.201 393.459 386.391 304.519 386.151ZM304.039 382.031C392.489 382.281 452.799 305.681 452.269 228.961C451.729 149.721 380.999 79.6506 302.129 81.0906C222.459 82.5406 150.849 142.491 151.559 234.511C152.199 318.341 218.839 382.761 304.039 382.031Z" fill="white"/>
<path d="M392.12 287.827C395.14 285.971 397.701 284.459 400.518 283.466C405.386 281.76 410.35 280.74 415.544 281.408C417.955 281.725 419.39 283.131 419.337 285.136C419.293 287.071 417.859 288.214 415.385 288.46C399.999 289.972 389.172 297.675 383.468 312.165C381.936 316.051 381.285 320.149 381.179 324.325C381.118 326.682 379.938 328.027 377.817 328.15C375.59 328.273 374.032 326.849 373.759 324.519C373.451 321.854 373.16 319.181 373.653 316.517C373.97 314.803 373.363 313.835 371.708 313.15C364.296 310.063 356.656 308.78 348.672 310.028C347.246 310.248 346.63 309.791 346.058 308.551C339.905 295.125 325.786 286.561 311.095 287.668C298.833 288.6 289.379 294.492 282.654 304.788C281.703 306.239 281.545 307.232 282.936 308.718C289.828 316.06 293.305 324.8 293.147 334.947C293.12 336.802 292.645 337.549 290.664 337.541C285.233 337.514 285.233 337.593 284.494 332.195C282.381 316.834 269.697 304.049 254.372 302.247C243.677 300.989 234.153 304.067 225.993 311.154C225.113 311.919 224.259 312.64 223.009 312.692C221.389 312.763 220.113 312.182 219.312 310.776C218.502 309.351 218.678 307.98 219.717 306.696C223.59 301.895 228.414 298.501 234.329 296.655C236.987 295.828 236.996 295.784 235.394 293.428C229.391 284.644 221.442 278.691 210.668 277.346C203.978 276.511 197.289 277.047 190.704 278.674C188.178 279.298 186.066 278.137 185.493 275.816C185.08 274.119 185.449 272.668 187.183 271.798C190.643 270.066 194.243 268.852 198.142 268.632C200.871 268.474 200.924 268.386 200.088 265.863C196.179 254.001 194.146 241.832 194.692 229.347C195.713 205.967 203.829 185.19 218.3 166.857C233.141 148.058 251.907 135.177 275.33 129.462C291.483 125.523 307.706 125.664 323.911 129.304C327.485 130.104 329.465 132.759 328.999 136.048C328.576 139.081 325.469 141.244 322.106 141.13C302.521 140.462 284.705 145.412 269.301 157.897C259.46 165.872 251.08 175.14 245.605 186.614C233.396 212.227 235.412 237.225 249.962 261.29C257.479 273.723 267.963 283.193 280.603 290.359C282.513 291.441 283.596 291.08 285.039 289.77C291.087 284.275 298.155 280.749 306.236 279.368C318.621 277.267 329.624 280.476 339.403 288.196C341.26 289.664 343.074 291.203 344.544 293.05C345.45 294.184 346.304 294.193 347.528 293.691C361.955 287.739 373.732 278.48 382.702 265.713C389.101 256.604 393.362 246.572 395.509 235.651C396.011 233.084 397.516 231.378 400.025 230.727C402.534 230.085 404.673 230.868 406.38 232.837C407.181 233.761 407.437 234.816 407.454 236.012C407.63 248.761 405.139 260.974 400.227 272.721C398.106 277.847 395.395 282.665 392.12 287.827Z" fill="white"/>
<path d="M304.54 256.079C302.077 248.021 296.931 242.999 288.715 240.967C298.084 240.078 303.37 235.135 304.496 225.714C306.581 233.947 311.639 238.926 320.119 240.456C311.146 241.969 306.106 247.23 304.54 256.079Z" fill="white"/>
<path d="M274.597 229.778C272.372 230.613 271.096 232.021 270.445 234.58C269.354 232.249 267.929 230.833 265.616 229.839C268.316 229.267 269.803 227.895 270.41 225.432C271.175 227.596 272.732 228.801 274.597 229.778Z" fill="white"/>
<path d="M287.924 225.467C288.918 227.42 290.281 228.766 292.709 229.602C290.044 230.42 288.663 231.88 287.977 234.537C286.974 232.047 285.461 230.763 283.244 229.698C285.804 229.083 287.414 227.895 287.924 225.467Z" fill="white"/>
<path d="M280.728 212.018C279.602 210.214 278.432 208.745 276.356 207.839C278.591 207.171 280.051 205.843 280.614 203.098C281.652 205.464 282.91 206.872 285.566 207.496C283.042 208.446 281.344 209.66 280.728 212.018Z" fill="white"/>
<path d="M282.69 182.673C285.434 181.846 287.053 180.65 287.677 178.169C288.539 180.175 289.841 181.617 292.058 182.365C289.753 183.121 288.355 184.546 287.704 187.414C286.71 184.925 285.443 183.359 282.69 182.673Z" fill="white"/>
<path d="M313.627 214.393C311.252 215.167 310.029 216.777 309.299 219.248C308.384 216.926 307.047 215.492 304.487 214.621C307.1 213.9 308.692 212.686 309.308 210.232C310.24 212.158 311.454 213.689 313.627 214.393Z" fill="white"/>
<path d="M332.328 251.786C331.396 249.842 330.032 248.505 327.464 247.476C330.305 246.904 331.668 245.488 332.363 243.139C333.199 245.224 334.598 246.632 336.762 247.326C334.483 248.101 333.085 249.534 332.328 251.786Z" fill="white"/>
<path d="M305.262 270.558C308.393 269.054 308.437 269.01 309.721 265.896C310.575 268.086 311.789 269.617 314.049 270.285C311.762 271.112 310.258 272.519 309.809 275.009C307.769 271.983 307.769 271.983 305.262 270.558Z" fill="white"/>
<path d="M283.095 252.763C283.904 254.891 285.434 256.07 287.633 256.915C285.329 257.812 283.763 259.096 283.226 261.533C282.408 260.416 281.828 259.598 281.203 258.806C280.596 258.032 279.594 257.812 278.556 257.091C280.913 256.404 282.576 255.208 283.095 252.763Z" fill="white"/>
</svg>
